<svg width="32" height="32" viewBox="0 0 32 32" fill="none" xmlns="http://www.w3.org/2000/svg">
<path fill-rule="evenodd" clip-rule="evenodd" d="M12.572 11.9585H17.524V14.4252C18.2373 13.0065 20.0667 11.7318 22.8147 11.7318C28.0827 11.7318 29.3333 14.5558 29.3333 19.7372V29.3332H24V20.9172C24 17.9665 23.2867 16.3025 21.4707 16.3025C18.952 16.3025 17.9053 18.0958 17.9053 20.9158V29.3332H12.572V11.9585ZM3.42667 29.1065H8.76V11.7318H3.42667V29.1065ZM9.524 6.06651C9.5242 6.51354 9.43555 6.95615 9.26319 7.36862C9.09083 7.78109 8.83821 8.15519 8.52 8.46917C8.20086 8.78666 7.82228 9.03816 7.4059 9.20928C6.98952 9.38041 6.54351 9.46781 6.09334 9.46651C5.18614 9.46447 4.31589 9.10689 3.66934 8.47051C3.3524 8.15537 3.10071 7.78083 2.92867 7.36833C2.75662 6.95583 2.66759 6.51345 2.66667 6.06651C2.66667 5.16384 3.02667 4.29984 3.67067 3.66251C4.31561 3.02368 5.18691 2.66567 6.09467 2.66651C7.004 2.66651 7.876 3.02517 8.52 3.66251C9.164 4.29984 9.524 5.16384 9.524 6.06651Z" fill="white"/>
</svg>
