<svg width="40" height="41" viewBox="0 0 40 41" fill="none" xmlns="http://www.w3.org/2000/svg">
<path d="M10.0083 15.1167L12.3666 12.7633L17.9266 18.3233L27.6516 8.59668L30.01 10.955L17.9266 23.035L10.0083 15.1167Z" fill="white"/>
<path d="M35 3.58337H4.99996C4.11672 3.58601 3.2704 3.93805 2.64585 4.5626C2.0213 5.18715 1.66926 6.03346 1.66663 6.91671L1.67329 26.9234C1.67505 27.8051 2.02611 28.6502 2.6496 29.2737C3.27309 29.8972 4.11821 30.2483 4.99996 30.25H16.6666V33.5834L13.34 33.59L13.3333 36.9167H26.6666L26.6733 33.59L23.3333 33.5834V30.25H35C35.8832 30.2474 36.7295 29.8954 37.3541 29.2708C37.9786 28.6463 38.3307 27.7999 38.3333 26.9167V6.91671C38.3307 6.03346 37.9786 5.18715 37.3541 4.5626C36.7295 3.93805 35.8832 3.58601 35 3.58337ZM35 26.9167H4.99996V6.91671H35V26.9167Z" fill="white"/>
</svg>
