<svg width="40" height="41" viewBox="0 0 40 41" fill="none" xmlns="http://www.w3.org/2000/svg">
<path d="M36.25 35.125H33.125V6.375H33.75C34.2473 6.375 34.7242 6.17746 35.0758 5.82583C35.4275 5.47419 35.625 4.99728 35.625 4.5C35.625 4.00272 35.4275 3.52581 35.0758 3.17417C34.7242 2.82254 34.2473 2.625 33.75 2.625H6.25C5.75272 2.625 5.27581 2.82254 4.92417 3.17417C4.57254 3.52581 4.375 4.00272 4.375 4.5C4.375 4.99728 4.57254 5.47419 4.92417 5.82583C5.27581 6.17746 5.75272 6.375 6.25 6.375H6.875V35.125H3.75C3.25272 35.125 2.77581 35.3225 2.42417 35.6742C2.07254 36.0258 1.875 36.5027 1.875 37C1.875 37.4973 2.07254 37.9742 2.42417 38.3258C2.77581 38.6775 3.25272 38.875 3.75 38.875H36.25C36.7473 38.875 37.2242 38.6775 37.5758 38.3258C37.9275 37.9742 38.125 37.4973 38.125 37C38.125 36.5027 37.9275 36.0258 37.5758 35.6742C37.2242 35.3225 36.7473 35.125 36.25 35.125ZM10.625 6.375H29.375V35.125H25.625V29.5C25.625 29.0027 25.4275 28.5258 25.0758 28.1742C24.7242 27.8225 24.2473 27.625 23.75 27.625H16.25C15.7527 27.625 15.2758 27.8225 14.9242 28.1742C14.5725 28.5258 14.375 29.0027 14.375 29.5V35.125H10.625V6.375ZM21.875 35.125H18.125V31.375H21.875V35.125ZM13.125 10.75C13.125 10.2527 13.3225 9.77581 13.6742 9.42417C14.0258 9.07254 14.5027 8.875 15 8.875H16.875C17.3723 8.875 17.8492 9.07254 18.2008 9.42417C18.5525 9.77581 18.75 10.2527 18.75 10.75C18.75 11.2473 18.5525 11.7242 18.2008 12.0758C17.8492 12.4275 17.3723 12.625 16.875 12.625H15C14.5027 12.625 14.0258 12.4275 13.6742 12.0758C13.3225 11.7242 13.125 11.2473 13.125 10.75ZM21.25 10.75C21.25 10.2527 21.4475 9.77581 21.7992 9.42417C22.1508 9.07254 22.6277 8.875 23.125 8.875H25C25.4973 8.875 25.9742 9.07254 26.3258 9.42417C26.6775 9.77581 26.875 10.2527 26.875 10.75C26.875 11.2473 26.6775 11.7242 26.3258 12.0758C25.9742 12.4275 25.4973 12.625 25 12.625H23.125C22.6277 12.625 22.1508 12.4275 21.7992 12.0758C21.4475 11.7242 21.25 11.2473 21.25 10.75ZM13.125 17C13.125 16.5027 13.3225 16.0258 13.6742 15.6742C14.0258 15.3225 14.5027 15.125 15 15.125H16.875C17.3723 15.125 17.8492 15.3225 18.2008 15.6742C18.5525 16.0258 18.75 16.5027 18.75 17C18.75 17.4973 18.5525 17.9742 18.2008 18.3258C17.8492 18.6775 17.3723 18.875 16.875 18.875H15C14.5027 18.875 14.0258 18.6775 13.6742 18.3258C13.3225 17.9742 13.125 17.4973 13.125 17ZM21.25 17C21.25 16.5027 21.4475 16.0258 21.7992 15.6742C22.1508 15.3225 22.6277 15.125 23.125 15.125H25C25.4973 15.125 25.9742 15.3225 26.3258 15.6742C26.6775 16.0258 26.875 16.5027 26.875 17C26.875 17.4973 26.6775 17.9742 26.3258 18.3258C25.9742 18.6775 25.4973 18.875 25 18.875H23.125C22.6277 18.875 22.1508 18.6775 21.7992 18.3258C21.4475 17.9742 21.25 17.4973 21.25 17ZM13.125 23.25C13.125 22.7527 13.3225 22.2758 13.6742 21.9242C14.0258 21.5725 14.5027 21.375 15 21.375H16.875C17.3723 21.375 17.8492 21.5725 18.2008 21.9242C18.5525 22.2758 18.75 22.7527 18.75 23.25C18.75 23.7473 18.5525 24.2242 18.2008 24.5758C17.8492 24.9275 17.3723 25.125 16.875 25.125H15C14.5027 25.125 14.0258 24.9275 13.6742 24.5758C13.3225 24.2242 13.125 23.7473 13.125 23.25ZM21.25 23.25C21.25 22.7527 21.4475 22.2758 21.7992 21.9242C22.1508 21.5725 22.6277 21.375 23.125 21.375H25C25.4973 21.375 25.9742 21.5725 26.3258 21.9242C26.6775 22.2758 26.875 22.7527 26.875 23.25C26.875 23.7473 26.6775 24.2242 26.3258 24.5758C25.9742 24.9275 25.4973 25.125 25 25.125H23.125C22.6277 25.125 22.1508 24.9275 21.7992 24.5758C21.4475 24.2242 21.25 23.7473 21.25 23.25Z" fill="white"/>
</svg>
