<svg width="40" height="41" viewBox="0 0 40 41" fill="none" xmlns="http://www.w3.org/2000/svg">
<path d="M14.7501 28.2917L20.0001 25.125L25.2501 28.3334L23.8751 22.3334L28.5001 18.3334L22.4167 17.7917L20.0001 12.125L17.5834 17.75L11.5001 18.2917L16.1251 22.3334L14.7501 28.2917ZM20.0001 29.0417L13.0834 33.2084C12.7778 33.4028 12.4584 33.4862 12.1251 33.4584C11.7917 33.4306 11.5001 33.3195 11.2501 33.125C11.0001 32.9306 10.8056 32.6878 10.6667 32.3967C10.5278 32.1056 10.5001 31.7789 10.5834 31.4167L12.4167 23.5417L6.29173 18.25C6.01395 18 5.84062 17.715 5.77173 17.395C5.70284 17.075 5.72339 16.7628 5.83339 16.4584C5.94339 16.1539 6.11006 15.9039 6.33339 15.7084C6.55673 15.5128 6.86228 15.3878 7.25006 15.3334L15.3334 14.625L18.4584 7.20837C18.5973 6.87504 18.8128 6.62504 19.1051 6.45837C19.3973 6.29171 19.6956 6.20837 20.0001 6.20837C20.3045 6.20837 20.6028 6.29171 20.8951 6.45837C21.1873 6.62504 21.4028 6.87504 21.5417 7.20837L24.6667 14.625L32.7501 15.3334C33.1389 15.3889 33.4445 15.5139 33.6667 15.7084C33.8889 15.9028 34.0556 16.1528 34.1667 16.4584C34.2778 16.7639 34.2989 17.0767 34.2301 17.3967C34.1612 17.7167 33.9873 18.0012 33.7084 18.25L27.5834 23.5417L29.4167 31.4167C29.5001 31.7778 29.4723 32.1045 29.3334 32.3967C29.1945 32.6889 29.0001 32.9317 28.7501 33.125C28.5001 33.3184 28.2084 33.4295 27.8751 33.4584C27.5417 33.4873 27.2223 33.4039 26.9167 33.2084L20.0001 29.0417Z" fill="white"/>
</svg>
