<svg width="32" height="32" viewBox="0 0 32 32" fill="none" xmlns="http://www.w3.org/2000/svg">
<path d="M22.4 2.1333C23.2487 2.1333 24.0626 2.47044 24.6627 3.07056C25.2629 3.67068 25.6 4.48461 25.6 5.3333V26.6666C25.6 27.5153 25.2629 28.3293 24.6627 28.9294C24.0626 29.5295 23.2487 29.8666 22.4 29.8666H9.59999C8.7513 29.8666 7.93737 29.5295 7.33725 28.9294C6.73714 28.3293 6.39999 27.5153 6.39999 26.6666V5.3333C6.39999 4.48461 6.73714 3.67068 7.33725 3.07056C7.93737 2.47044 8.7513 2.1333 9.59999 2.1333H22.4ZM9.59999 4.26663C9.3171 4.26663 9.04579 4.37901 8.84575 4.57905C8.64571 4.77909 8.53333 5.0504 8.53333 5.3333V26.6666C8.53333 26.9495 8.64571 27.2208 8.84575 27.4209C9.04579 27.6209 9.3171 27.7333 9.59999 27.7333H22.4C22.6829 27.7333 22.9542 27.6209 23.1542 27.4209C23.3543 27.2208 23.4667 26.9495 23.4667 26.6666V5.3333C23.4667 5.0504 23.3543 4.77909 23.1542 4.57905C22.9542 4.37901 22.6829 4.26663 22.4 4.26663H9.59999ZM19.3493 24.8682C19.5181 24.9025 19.6699 24.9941 19.7789 25.1274C19.8879 25.2608 19.9474 25.4277 19.9474 25.6C19.9474 25.7722 19.8879 25.9391 19.7789 26.0725C19.6699 26.2059 19.5181 26.2974 19.3493 26.3317L19.2 26.3466H12.8C12.602 26.3466 12.412 26.268 12.272 26.1279C12.132 25.9879 12.0533 25.798 12.0533 25.6C12.0533 25.4019 12.132 25.212 12.272 25.072C12.412 24.932 12.602 24.8533 12.8 24.8533H19.2L19.3493 24.8682Z" fill="black"/>
</svg>
