<svg width="24" height="24" viewBox="0 0 24 24" fill="none" xmlns="http://www.w3.org/2000/svg">
<path d="M13.319 1.14727L21.4857 4.1852C21.9305 4.35062 22.3139 4.6468 22.5845 5.03415C22.8551 5.4215 23.0001 5.88157 23 6.35284V12.5595C23 14.4938 22.4571 16.39 21.4319 18.0355C20.4068 19.6809 18.94 21.0107 17.1958 21.8758L13.2828 23.8166C13.0398 23.9372 12.7718 24 12.5 24C12.2282 24 11.9602 23.9372 11.7172 23.8166L7.80417 21.8758C6.06004 21.0107 4.59323 19.6809 3.56808 18.0355C2.54293 16.39 1.99996 14.4938 2 12.5595V6.35284C1.99994 5.88157 2.1449 5.4215 2.41551 5.03415C2.68612 4.6468 3.06948 4.35062 3.51433 4.1852L11.681 1.14727C12.2091 0.950911 12.7909 0.950911 13.319 1.14727ZM12.5 3.31491L4.33333 6.35284V12.5595C4.3336 14.0638 4.75612 15.5384 5.55357 16.818C6.35101 18.0975 7.49187 19.1316 8.84833 19.8042L12.5 21.6177L16.1517 19.8066C17.5085 19.1337 18.6496 18.0993 19.447 16.8193C20.2445 15.5393 20.6668 14.0642 20.6667 12.5595V6.35284L12.5 3.31491ZM12.5 7.86544C12.8094 7.86544 13.1062 7.98737 13.325 8.20441C13.5437 8.42145 13.6667 8.71581 13.6667 9.02275V11.3374H16C16.3094 11.3374 16.6062 11.4593 16.825 11.6763C17.0437 11.8934 17.1667 12.1877 17.1667 12.4947C17.1667 12.8016 17.0437 13.096 16.825 13.313C16.6062 13.5301 16.3094 13.652 16 13.652H13.6667V15.9666C13.6667 16.2735 13.5437 16.5679 13.325 16.7849C13.1062 17.002 12.8094 17.1239 12.5 17.1239C12.1906 17.1239 11.8938 17.002 11.675 16.7849C11.4562 16.5679 11.3333 16.2735 11.3333 15.9666V13.652H9C8.69058 13.652 8.39383 13.5301 8.17504 13.313C7.95625 13.096 7.83333 12.8016 7.83333 12.4947C7.83333 12.1877 7.95625 11.8934 8.17504 11.6763C8.39383 11.4593 8.69058 11.3374 9 11.3374H11.3333V9.02275C11.3333 8.71581 11.4562 8.42145 11.675 8.20441C11.8938 7.98737 12.1906 7.86544 12.5 7.86544Z" fill="#239BCD"/>
</svg>
