<svg width="430" height="396" viewBox="0 0 430 396" fill="none" xmlns="http://www.w3.org/2000/svg">
<path d="M398.991 201.766C413.574 186.13 427.264 165.044 419.813 145.268C412.342 125.44 387.84 117.844 366.349 114.053C344.858 110.262 320.48 106.071 308.577 88.3776C296.563 70.5206 302.301 45.4696 290.495 27.4836C277.958 8.38364 251.257 4.59864 227.926 2.68964C192.348 -0.22036 155.711 -3.02836 121.623 7.23164C87.5344 17.4926 56.1924 44.1336 52.3134 78.4156C48.3704 113.262 72.7104 148.6 62.0054 182.094C50.8944 216.859 5.67038 236.035 1.16538 272.157C-1.19262 291.066 8.65538 309.178 18.1914 325.849C30.3914 347.179 42.5914 369.859 54.7904 391.189H357.7C353.346 385.255 357.656 376.715 363.734 372.422C369.812 368.129 377.424 366.131 383.266 361.542C398.736 349.391 395.246 325.529 386.524 308.21C377.802 290.891 364.976 273.958 366.033 254.726C367.189 233.712 384.408 217.402 398.991 201.766Z" fill="#73CDF3"/>
<path d="M26.0001 216.414C58.6771 184.947 56.1851 168.202 49.4771 126.279C46.2041 105.821 20.1891 125.87 10.9081 156.883C1.16807 189.424 8.61207 233.157 26.0001 216.414Z" fill="#73CDF3"/>
<path d="M132.485 375.408C128.163 383.093 68.5546 399.536 68.1106 376.891C67.7376 357.82 111.079 363.498 126.979 370.192C122.238 365.556 117.695 360.768 113.341 356.008C109.172 351.448 105.165 346.757 101.316 341.948C91.9617 347.911 34.5386 349.349 39.1346 327.974C42.8116 310.87 77.5066 322.461 93.9866 332.338C88.1926 324.448 82.7996 316.274 77.7916 307.866C70.8926 313.815 9.71064 311.753 15.9756 290.099C21.2106 272.004 59.9946 289.606 73.6716 300.746C68.5506 291.623 63.8586 282.253 59.6056 272.684C50.8856 277.282 -8.01536 267.24 0.919644 246.83C8.31064 229.946 43.0786 251.134 55.9146 264.073C53.6816 258.669 51.5896 253.208 49.6196 247.704C40.4326 243.955 9.97665 192.694 31.2886 186.272C51.4236 180.203 56.9256 233.409 52.6986 245.501C54.9086 251.727 57.3026 257.883 59.8546 263.967C60.6036 246.969 74.7036 203.998 91.7326 213.488C110.91 224.178 72.5916 268.368 62.6956 270.585C66.8856 280.014 71.5186 289.232 76.5586 298.22C75.5466 280.484 83.9407 238.161 101.659 245.187C121.796 253.174 90.6966 300.8 80.7176 305.417C86.7986 315.628 93.4476 325.499 100.681 334.962C97.2356 320.045 102.119 271.04 121.475 277.191C142.807 283.972 112.522 336.796 103.89 339.116C107.839 344.098 111.944 348.969 116.225 353.704C120.062 357.946 124.074 362.206 128.258 366.348C122.093 349.484 117.735 307.14 136.615 308.584C158.2 310.237 142.665 364.881 134.5 372.304C142.285 379.455 150.621 386.033 159.513 391.275C161.559 392.481 159.353 395.443 157.322 394.246C148.47 389.024 140.219 382.497 132.485 375.408Z" fill="#D4F2FF"/>
<path d="M223.544 393.699C225.649 379.936 228.533 366.296 232.181 352.859C235.822 339.451 240.238 326.255 245.364 313.342C250.5 300.401 256.356 287.744 262.894 275.451C269.418 263.183 276.621 251.281 284.483 239.824C292.322 228.397 300.8 217.41 309.878 206.941C311.029 205.614 312.191 204.296 313.36 202.985C314.888 201.271 312.144 199.003 310.623 200.709C301.268 211.197 292.515 222.216 284.419 233.703C276.345 245.158 268.911 257.07 262.157 269.351C255.416 281.609 249.36 294.242 244.024 307.173C238.651 320.191 234.023 333.51 230.134 347.045C226.271 360.489 223.166 374.149 220.858 387.944C220.568 389.677 220.292 391.411 220.026 393.148C219.68 395.409 223.196 395.971 223.544 393.699Z" fill="#A2DEF8"/>
<path d="M280.145 246.707C277.532 219.504 284.733 179.205 285.379 152.421C286.091 122.866 290.221 91.0897 315.207 73.9557C321.724 69.4867 330.037 66.1537 339.256 67.3877C352.208 69.1207 363.518 79.7107 367.909 90.6177C372.3 101.526 371.143 112.631 369.049 123.038C358.825 173.866 326.954 218.201 280.145 246.707Z" fill="#A2DEF8"/>
<path d="M240.868 320.444C222.931 301.639 204.896 267.354 189.717 246.97C172.968 224.477 157.554 198.343 166.792 171.036C169.201 163.914 173.661 156.597 181.492 152.167C192.494 145.942 207.413 147.287 217.183 152.886C226.953 158.485 232.56 167.453 237.038 176.442C258.906 220.349 260.279 271.973 240.868 320.444Z" fill="#A2DEF8"/>
<path d="M227.184 360.013C241.304 334.102 271.774 299.741 288.453 275.399C306.858 248.539 329.548 220.882 361.424 214.243C369.739 212.511 378.919 212.473 386.133 216.957C396.267 223.255 399.653 237.082 396.877 248.687C394.101 260.292 386.418 270.061 378.348 278.85C338.93 321.773 284.739 350.87 227.184 360.013Z" fill="#A2DEF8"/>
<path d="M216.661 395.074C233.687 390.397 250.205 381.56 265.371 371.911C266.035 372.36 267.001 372.977 268.233 373.665C270.742 375.097 274.352 376.878 278.695 378.502C283.034 380.12 288.121 381.609 293.573 382.666C299.042 383.735 304.879 384.359 310.727 384.58C316.587 384.752 322.451 384.514 327.97 383.796C330.742 383.449 333.4 382.992 335.944 382.454C338.471 381.921 340.865 381.252 343.096 380.606C345.314 379.935 347.34 379.22 349.171 378.505C350.976 377.782 352.548 377.085 353.845 376.446C356.458 375.176 357.959 374.182 357.959 374.182C357.959 374.182 356.524 373.084 354.013 371.66C352.749 370.93 351.212 370.131 349.456 369.295C347.702 368.466 345.707 367.633 343.542 366.803C341.367 366.017 339.02 365.186 336.518 364.503C334.014 363.801 331.388 363.166 328.652 362.641C323.194 361.564 317.354 360.955 311.501 360.755C305.648 360.603 299.771 360.839 294.258 361.563C288.736 362.25 283.577 363.416 279.132 364.755C276.954 365.413 274.955 366.12 273.166 366.825C274.299 366.054 275.432 365.295 276.558 364.524C287.422 357.119 297.775 349.07 307.706 340.558C308.223 340.871 308.824 341.223 309.521 341.62C312.038 343.06 315.652 344.837 319.993 346.452C324.334 348.076 329.409 349.565 334.874 350.623C340.32 351.697 346.176 352.319 352.026 352.538C357.883 352.718 363.75 352.487 369.259 351.756C372.023 351.411 374.692 350.955 377.234 350.411C379.763 349.886 382.167 349.215 384.389 348.563C386.616 347.893 388.636 347.176 390.457 346.472C392.254 345.746 393.84 345.046 395.143 344.407C397.75 343.14 399.251 342.146 399.251 342.146C399.251 342.146 397.813 341.045 395.313 339.623C394.035 338.896 392.5 338.089 390.757 337.258C388.996 336.429 387.009 335.592 384.83 334.765C382.665 333.973 380.316 333.157 377.815 332.459C375.315 331.757 372.677 331.135 369.947 330.606C364.489 329.538 358.645 328.921 352.798 328.725C346.94 328.565 341.069 328.799 335.558 329.518C330.039 330.227 324.866 331.374 320.427 332.718C318.102 333.421 315.984 334.181 314.101 334.912C323.609 326.374 332.684 317.378 341.329 307.963C341.953 308.117 342.661 308.292 343.482 308.469C346.33 309.061 350.309 309.668 354.933 309.899C359.562 310.135 364.856 310.019 370.38 309.364C375.903 308.737 381.662 307.569 387.307 305.997C392.949 304.401 398.467 302.399 403.506 300.038C406.031 298.874 408.437 297.638 410.689 296.347C412.949 295.079 415.034 293.719 416.953 292.425C418.857 291.098 420.591 289.813 422.099 288.584C423.601 287.348 424.914 286.209 425.942 285.201C428.045 283.215 429.173 281.8 429.173 281.8C429.173 281.8 427.478 281.191 424.647 280.585C423.224 280.283 421.53 279.988 419.59 279.725C417.665 279.462 415.525 279.263 413.203 279.127C410.892 279.043 408.396 278.968 405.812 279.066C403.221 279.155 400.518 279.351 397.748 279.666C392.227 280.304 386.47 281.483 380.837 283.067C375.201 284.68 369.692 286.686 364.645 289.05C359.692 291.335 355.22 293.946 351.445 296.506C358.416 288.338 365.098 279.912 371.496 271.262C373.782 269.829 376.548 267.9 379.498 265.451C383.061 262.469 386.861 258.795 390.479 254.571C394.131 250.357 397.554 245.597 400.635 240.613C403.696 235.622 406.397 230.407 408.506 225.247C409.567 222.68 410.488 220.137 411.28 217.669C412.072 215.211 412.676 212.784 413.222 210.532C413.733 208.27 414.118 206.143 414.395 204.219C414.667 202.289 414.849 200.581 414.925 199.126C415.131 196.24 414.988 194.438 414.988 194.438C414.988 194.438 413.334 195.14 410.844 196.617C409.585 197.357 408.138 198.286 406.545 199.408C404.954 200.519 403.226 201.832 401.447 203.314C399.678 204.812 397.802 206.44 395.964 208.274C394.124 210.096 392.271 212.072 390.464 214.179C386.824 218.389 383.403 223.167 380.319 228.153C377.296 233.157 374.599 238.382 372.486 243.529C370.36 248.679 368.811 253.733 367.776 258.252C366.741 262.77 366.239 266.759 366.046 269.654C365.98 270.636 365.957 271.476 365.946 272.183C355.584 285.98 344.449 299.219 332.54 311.683C333.526 309.151 334.621 305.885 335.553 302.1C336.651 297.593 337.526 292.371 337.94 286.826C338.362 281.275 338.285 275.405 337.82 269.572C337.305 263.734 336.386 257.939 335.014 252.548C334.335 249.833 333.579 247.236 332.74 244.783C331.914 242.33 330.975 240.027 330.071 237.894C329.125 235.771 328.183 233.839 327.263 232.122C326.331 230.41 325.456 228.924 324.66 227.7C323.108 225.266 321.944 223.9 321.944 223.9C321.944 223.9 321.016 225.445 319.899 228.11C319.318 229.452 318.71 231.066 318.083 232.91C317.476 234.759 316.871 236.826 316.307 239.072C315.79 241.328 315.241 243.759 314.849 246.326C314.453 248.879 314.132 251.572 313.926 254.343C313.503 259.9 313.579 265.775 314.072 271.607C314.602 277.448 315.541 283.241 316.902 288.635C318.241 294.028 320.003 299.027 321.859 303.281C323.71 307.527 325.676 311.038 327.242 313.468C327.79 314.33 328.293 315.067 328.718 315.636C316.608 327.956 303.741 339.482 290.038 349.959C290.261 349.46 290.51 348.904 290.778 348.275C291.899 345.603 293.229 341.812 294.333 337.309C295.44 332.802 296.31 327.591 296.728 322.045C297.146 316.497 297.084 310.624 296.605 304.777C296.093 298.941 295.169 293.142 293.8 287.74C293.132 285.056 292.368 282.446 291.526 279.999C290.701 277.55 289.757 275.245 288.856 273.109C287.916 270.981 286.976 269.038 286.048 267.334C285.124 265.628 284.252 264.137 283.453 262.908C281.895 260.487 280.724 259.11 280.724 259.11C280.724 259.11 279.803 260.654 278.68 263.325C278.111 264.66 277.501 266.276 276.874 268.123C276.263 269.971 275.652 272.039 275.1 274.295C274.56 276.543 274.016 278.98 273.645 281.532C273.234 284.094 272.915 286.789 272.715 289.566C272.302 295.109 272.372 300.977 272.868 306.818C273.386 312.654 274.325 318.458 275.684 323.855C277.034 329.25 278.789 334.244 280.643 338.488C282.501 342.737 284.463 346.237 286.028 348.682C286.799 349.891 287.477 350.846 287.954 351.493C282.686 355.469 277.302 359.298 271.782 362.939C265.018 367.413 257.959 371.887 250.673 376.018C250.974 375.396 251.323 374.641 251.689 373.743C252.824 371.067 254.161 367.282 255.242 362.779C256.365 358.277 257.241 353.05 257.64 347.516C258.07 341.952 258.008 336.088 257.516 330.244C257.013 324.408 256.095 318.621 254.734 313.226C254.063 310.516 253.287 307.912 252.444 305.46C251.626 303.012 250.677 300.701 249.777 298.571C248.844 296.457 247.894 294.509 246.969 292.799C246.038 291.091 245.158 289.603 244.377 288.389C242.813 285.949 241.648 284.58 241.648 284.58C241.648 284.58 240.729 286.126 239.593 288.794C239.035 290.13 238.415 291.75 237.798 293.589C237.177 295.438 236.584 297.506 236.01 299.761C235.487 302.007 234.937 304.457 234.569 307.005C234.16 309.567 233.835 312.253 233.635 315.028C233.219 320.584 233.296 326.449 233.781 332.29C234.319 338.124 235.234 343.917 236.606 349.326C237.95 354.721 239.712 359.703 241.558 363.955C243.421 368.21 245.384 371.702 246.959 374.15C247.738 375.39 248.429 376.355 248.919 377.007C238.222 382.955 227.029 388.093 215.507 391.256C213.05 391.947 214.2 395.751 216.661 395.074Z" fill="#D4F2FF"/>
<path d="M142.188 44.2084C146.93 44.2084 150.774 48.0524 150.774 52.7944C150.774 54.3754 152.055 55.6564 153.636 55.6564C155.217 55.6564 156.498 54.3754 156.498 52.7944C156.498 44.8904 150.091 38.4834 142.187 38.4834C140.606 38.4834 139.325 39.7644 139.325 41.3454C139.326 42.9274 140.608 44.2084 142.188 44.2084Z" fill="#FFD400"/>
<path d="M142.188 32.7606C153.253 32.7606 162.223 41.7306 162.223 52.7956C162.223 54.3766 163.504 55.6576 165.085 55.6576C166.666 55.6576 167.947 54.3766 167.947 52.7956C167.947 38.5696 156.414 27.0366 142.188 27.0366C140.607 27.0366 139.326 28.3176 139.326 29.8986C139.326 31.4786 140.608 32.7606 142.188 32.7606Z" fill="#FFD400"/>
<path d="M167.232 66.8486C166.912 65.9146 166.133 65.2116 165.171 64.9886L147.998 61.0676C147.051 60.8526 146.059 61.1326 145.365 61.8116C144.964 62.1836 144.936 62.2126 143.075 65.7616C136.902 62.9176 131.956 57.9506 129.136 51.7656C132.771 49.9336 132.799 49.9336 133.172 49.5046C133.851 48.8096 134.131 47.8186 133.916 46.8716L129.995 29.8996C129.772 28.9376 129.069 28.1586 128.135 27.8386C127.467 27.5996 126.776 27.4276 126.074 27.3236C125.351 27.1556 124.612 27.0596 123.87 27.0376C116.599 27.0376 110.704 32.9326 110.704 40.2036C110.736 64.5336 130.451 84.2486 154.781 84.2806C162.052 84.2806 167.947 78.3856 167.947 71.1146C167.948 70.3856 167.891 69.6586 167.775 68.9396C167.656 68.2266 167.474 67.5276 167.232 66.8486Z" fill="#535353"/>
<path d="M307.476 52.2398H272.31C265.022 52.2398 259.059 46.2768 259.059 38.9888C259.059 31.7008 265.022 25.7378 272.31 25.7378H307.476C314.764 25.7378 320.727 31.7008 320.727 38.9888C320.727 46.2768 314.765 52.2398 307.476 52.2398Z" fill="#535353"/>
<path d="M310.783 56.3118C310.783 57.9288 309.472 59.2398 307.855 59.2398C306.238 59.2398 304.927 57.9288 304.927 56.3118C304.927 54.6948 306.238 53.3838 307.855 53.3838C309.472 53.3838 310.783 54.6948 310.783 56.3118Z" fill="#535353"/>
<path d="M282.204 38.6296C282.204 40.7516 280.484 42.4716 278.362 42.4716C276.24 42.4716 274.521 40.7516 274.521 38.6296C274.521 36.5076 276.24 34.7876 278.362 34.7876C280.484 34.7876 282.204 36.5076 282.204 38.6296Z" fill="white"/>
<path d="M293.736 38.6296C293.736 40.7516 292.016 42.4716 289.894 42.4716C287.772 42.4716 286.052 40.7516 286.052 38.6296C286.052 36.5076 287.772 34.7876 289.894 34.7876C292.016 34.7876 293.736 36.5076 293.736 38.6296Z" fill="white"/>
<path d="M305.265 38.6296C305.265 40.7516 303.545 42.4716 301.423 42.4716C299.301 42.4716 297.581 40.7516 297.581 38.6296C297.581 36.5076 299.301 34.7876 301.423 34.7876C303.545 34.7876 305.265 36.5076 305.265 38.6296Z" fill="white"/>
<path d="M256.216 83.0279H291.382C298.67 83.0279 304.633 77.0649 304.633 69.7769C304.633 62.4889 298.67 56.5259 291.382 56.5259H256.216C248.928 56.5259 242.965 62.4889 242.965 69.7769C242.965 77.0649 248.928 83.0279 256.216 83.0279Z" fill="#FFD400"/>
<path d="M252.909 87.0999C252.909 88.7169 254.22 90.0279 255.837 90.0279C257.454 90.0279 258.765 88.7169 258.765 87.0999C258.765 85.4829 257.454 84.1719 255.837 84.1719C254.22 84.1719 252.909 85.4829 252.909 87.0999Z" fill="#FFD400"/>
<path d="M266.111 69.5397C266.111 71.6617 264.391 73.3818 262.269 73.3818C260.147 73.3818 258.427 71.6617 258.427 69.5397C258.427 67.4177 260.147 65.6978 262.269 65.6978C264.391 65.6978 266.111 67.4177 266.111 69.5397Z" fill="white"/>
<path d="M277.642 69.5397C277.642 71.6617 275.922 73.3818 273.8 73.3818C271.678 73.3818 269.958 71.6617 269.958 69.5397C269.958 67.4177 271.678 65.6978 273.8 65.6978C275.921 65.6978 277.642 67.4177 277.642 69.5397Z" fill="white"/>
<path d="M289.171 69.5397C289.171 71.6617 287.451 73.3818 285.329 73.3818C283.207 73.3818 281.487 71.6617 281.487 69.5397C281.487 67.4177 283.207 65.6978 285.329 65.6978C287.451 65.6978 289.171 67.4177 289.171 69.5397Z" fill="white"/>
<path d="M204.438 162.112C203.22 165.254 201.177 167.776 198.774 169.406C195.708 171.515 192.045 172.189 188.729 170.906C182.826 168.623 180.293 160.97 183.065 153.828C185.826 146.686 192.86 142.75 198.763 145.033C198.796 145.044 198.828 145.055 198.861 145.077C204.699 147.414 207.189 155.013 204.438 162.112Z" fill="#D4D9F5"/>
<path d="M59.7176 151.449C65.8956 160.865 83.8846 188.229 93.9756 203.06C86.3246 217.378 70.3046 225.298 70.3046 225.298C70.3046 225.298 62.0216 203.135 57.6596 191.139C53.2976 179.144 49.9186 169.804 50.0496 163.67C50.0676 162.822 50.7626 162.539 51.2346 162.441L50.5756 161.248C49.7726 159.794 50.3476 157.964 51.8376 157.231C52.7846 156.765 53.8576 156.887 54.6926 157.427L53.4706 155.45C52.4606 153.816 52.8656 151.68 54.4036 150.529C56.1166 149.248 58.5436 149.661 59.7176 151.449Z" fill="#FFB8B8"/>
<path d="M65.4619 189.495C65.6509 182.049 72.3199 176.164 74.8739 174.524L75.7609 175.907C72.4949 178.003 67.2549 183.559 67.1039 189.537L65.4619 189.495Z" fill="#F18B8B"/>
<path d="M54.7882 157.417L54.0781 157.831L63.7089 174.349L64.419 173.935L54.7882 157.417Z" fill="#F18B8B"/>
<path d="M51.3095 162.529L50.5693 162.884L58.2234 178.83L58.9635 178.475L51.3095 162.529Z" fill="#F18B8B"/>
<path d="M228.26 175.83L228.298 176.457L228.664 195.678L229.599 244.49L171.163 228.778L199.31 210.259L199.027 202.909L198.073 177.379C197.733 169.089 204.155 162.071 212.44 161.652C220.753 161.258 227.768 167.627 228.26 175.83Z" fill="#FFB8B8"/>
<path d="M228.26 175.83L228.298 176.457L228.664 195.678C225.642 197.301 222.5 198.696 219.352 199.96C214.283 201.994 209.781 203.418 204.302 203.432C202.545 203.432 200.709 203.411 199.027 202.909L198.073 177.379C197.733 169.089 204.155 162.071 212.44 161.652C220.753 161.258 227.768 167.627 228.26 175.83Z" fill="#F18B8B"/>
<path d="M240.706 165.829C236.38 176.313 233.111 180.389 229.557 179.265C219.31 196.816 205.209 203.429 192.63 200.015C182.424 197.271 182.948 182.401 185.811 168.938C186.49 165.83 187.276 162.768 188.078 159.967C189.404 155.404 191.597 149.138 194.662 142.112C186.579 117.061 210.841 111.569 226.853 129.826C227.707 129.198 228.622 128.724 229.578 128.483C233.806 127.286 238.556 130.435 242.114 142.098C249.438 150.126 245.059 155.343 240.706 165.829Z" fill="#212121"/>
<path d="M234.995 141.422C233.667 138.959 231.204 135.908 226.854 129.824C227.708 129.196 228.623 128.722 229.579 128.481C231.676 132.419 234.666 138.558 234.995 141.422Z" fill="#3B3E63"/>
<path d="M237.358 169.438C232.445 179.328 224.838 174.882 224.154 170.912C220.176 176.709 217.591 178.201 215.82 178.385C214.048 178.57 209.116 175.458 207.004 174.772C204.864 174.061 194.196 177.166 185.839 168.963L185.811 168.938C186.49 165.83 187.276 162.768 188.078 159.967C189.404 155.404 191.597 149.138 194.662 142.112C199.193 136.361 213.027 125.28 229.209 153.804C227.914 159.309 226.987 163.533 225.82 166.355C233.717 156.81 242.272 159.574 237.358 169.438Z" fill="#FFB8B8"/>
<path d="M227.037 168.091C227.4 167.136 227.937 166.256 228.634 165.511C229.305 164.74 230.131 164.092 231.067 163.61C231.998 163.133 233.055 162.801 234.173 162.858C234.724 162.873 235.303 163.016 235.797 163.337C236.287 163.65 236.646 164.221 236.572 164.748C236.271 164.312 235.876 164.125 235.472 164.075C235.077 164.004 234.658 164.051 234.245 164.138C233.419 164.323 232.61 164.663 231.819 165.07C231.024 165.472 230.252 165.956 229.472 166.475C228.681 166.982 227.928 167.565 227.037 168.091Z" fill="#F18B8B"/>
<path d="M228.034 166.989C228.404 166.535 228.96 166.226 229.542 166.084C230.127 165.931 230.752 165.928 231.358 166.075C231.956 166.233 232.552 166.569 232.92 167.107C233.303 167.635 233.376 168.307 233.23 168.864C232.886 167.722 232.13 167.102 231.154 166.87C230.675 166.739 230.159 166.704 229.638 166.715C229.117 166.742 228.584 166.801 228.034 166.989Z" fill="#F18B8B"/>
<path d="M199.448 156.878C194.545 163.295 188.725 166.009 187.992 167.723C187.259 169.437 189.797 172.792 196.128 173.943C199.874 171.569 196.844 167.682 199.448 156.878Z" fill="#F18B8B"/>
<path d="M211.357 159.501C211.447 161.006 210.528 162.285 209.303 162.358C208.078 162.431 207.013 161.271 206.922 159.767C206.832 158.262 207.751 156.983 208.976 156.91C210.201 156.836 211.267 157.996 211.357 159.501Z" fill="#212121"/>
<path d="M195.496 158.013C195.212 159.493 194.006 160.506 192.801 160.275C191.596 160.044 190.849 158.657 191.133 157.177C191.416 155.697 192.623 154.684 193.828 154.915C195.033 155.145 195.78 156.532 195.496 158.013Z" fill="#212121"/>
<path d="M211.881 145.926C216.298 146.052 218.39 151.276 219.059 154.114C219.388 155.512 218.462 155.891 217.714 154.585C216.794 152.98 214.306 150.067 211.493 148.952C209.503 148.163 210.165 145.877 211.881 145.926Z" fill="#212121"/>
<path d="M199.247 143.763C195.521 142.235 192.398 144.884 190.821 147.098C189.988 148.268 190.608 149.43 191.869 148.608C193.419 147.597 195.202 146.347 198.215 146.634C200.345 146.837 200.835 144.414 199.247 143.763Z" fill="#212121"/>
<path d="M159.031 363.615C172.432 368.321 186.246 371.166 209.205 369.002C222.612 325.693 224.769 221.663 225.208 215.864C214.693 219.906 201.715 222.258 196.226 209.469C169.93 239.12 158.877 284.423 159.031 363.615Z" fill="white"/>
<path d="M228.837 204.783C214.63 212.985 205.68 237.89 203.32 275.94C200.96 313.989 198.037 348.763 199.003 360.111C199.969 371.458 203.349 389.789 223.692 391.421C244.034 393.052 274.036 394.104 274.036 394.104C274.036 394.104 250.117 247.27 249.305 238.479C248.493 229.688 245.558 215.904 228.837 204.783Z" fill="#FFD400"/>
<path d="M397.985 368.611C388.624 362.35 361.42 344.12 346.679 333.898C332.294 341.422 324.233 357.372 324.233 357.372C324.233 357.372 346.322 365.851 358.279 370.318C370.235 374.785 379.545 378.248 385.679 378.17C386.527 378.159 386.816 377.467 386.918 376.996L388.106 377.665C389.553 378.481 391.388 377.922 392.134 376.438C392.608 375.495 392.496 374.421 391.963 373.581L393.93 374.821C395.555 375.846 397.694 375.459 398.859 373.931C400.154 372.231 399.763 369.8 397.985 368.611Z" fill="#FFB8B8"/>
<path d="M354.312 339.981L387.796 348.608C389.731 349.107 390.92 351.053 390.479 353.002C390.019 355.04 387.963 356.291 385.941 355.764L365.933 350.551C365.933 350.551 350.088 347.831 354.312 339.981Z" fill="#FFB8B8"/>
<path d="M363.999 361.848C362.728 362.257 361.387 362.508 359.992 362.53L359.966 360.888C365.946 360.789 371.545 355.601 373.671 352.353L375.045 353.251C373.695 355.317 369.515 360.074 363.999 361.848Z" fill="#F18B8B"/>
<path d="M375.55 363.7L375.13 364.405L391.562 374.181L391.981 373.476L375.55 363.7Z" fill="#F18B8B"/>
<path d="M370.937 369.12L370.575 369.857L386.455 377.651L386.816 376.914L370.937 369.12Z" fill="#F18B8B"/>
<path d="M228.837 204.783C247.209 217.789 252.902 227.142 258.431 238.501C263.96 249.86 284.727 287.107 290.904 295.006C297.08 302.904 346.681 333.899 346.681 333.899L320.191 363.144C320.191 363.144 269.414 340.775 259.658 330.24C249.9 319.705 228.334 280.522 228.837 204.783Z" fill="#FFD400"/>
<path d="M199.177 207.146L199.364 212.011C188.272 224.212 179.677 245.701 174.934 273.277C169.545 304.51 167.473 337.72 167.261 365.208C167.137 384.118 149.662 383.881 141.017 377.426C142.854 352.541 150.052 292.466 153.959 274.116C157.702 256.535 165.282 205.456 199.177 207.146Z" fill="#FFD400"/>
<path d="M199.196 207.46L199.253 208.846C181.707 215.718 172.346 248.92 172.346 248.92C172.346 248.92 161.417 283.225 151.389 291.154C131.925 306.543 117.419 302.462 106.459 290.822C100.671 284.675 64.1416 226.377 64.1416 226.377L94.0206 202.678L127.861 248.127C127.861 248.127 156.571 227.634 167.393 219.67C177.159 212.453 185.477 207.339 199.196 207.46Z" fill="#FFD400"/>
<path d="M234.129 272.308L232.599 272.905L251.005 320.135L252.536 319.539L234.129 272.308Z" fill="#BB4344"/>
<path d="M160.201 252.852L152.203 278.171L153.769 278.665L161.767 253.346L160.201 252.852Z" fill="#BB4344"/>
<path d="M62.549 170.355L31.873 139.679V165.954C31.873 171.037 35.993 175.157 41.076 175.157H84.023C89.106 175.157 93.2261 171.037 93.2261 165.954V139.679L62.549 170.355Z" fill="#797979"/>
<path d="M93.2251 139.678V135.277C93.2251 130.194 89.1051 126.074 84.0221 126.074H41.0751C35.9921 126.074 31.8721 130.194 31.8721 135.277V139.678L62.5481 170.354L93.2251 139.678Z" fill="#535353"/>
<path d="M87.3509 143.336C93.5939 143.336 98.6549 138.275 98.6549 132.032C98.6549 125.789 93.5939 120.728 87.3509 120.728C81.1079 120.728 76.0469 125.789 76.0469 132.032C76.0469 138.275 81.1079 143.336 87.3509 143.336Z" fill="#FFD400"/>
<path d="M59.0307 154.771H38.8857V159.269H59.0307V154.771Z" fill="#979797"/>
<path d="M87.9601 195.375L79.6291 161.816C79.1481 159.876 77.2121 158.671 75.2591 159.094C73.2181 159.536 71.9481 161.581 72.4571 163.607L77.4931 183.66C77.4931 183.66 80.0731 199.53 87.9601 195.375Z" fill="#FFB8B8"/>
<path d="M200.028 177.531C200.017 177.585 200.02 177.638 200.009 177.692C198.787 187.393 187.23 188.38 186.375 176.536C186.317 175.923 186.297 175.268 186.316 174.584C189.509 174.703 197.186 176.657 200.028 177.531Z" fill="#F18B8B"/>
<path d="M200.028 177.531C200.017 177.585 200.02 177.638 200.009 177.692C198.701 178.026 197.279 178.232 195.769 178.309C191.977 178.501 188.554 177.791 186.375 176.536C186.317 175.923 186.297 175.268 186.316 174.584C189.509 174.703 197.186 176.657 200.028 177.531Z" fill="#73CDF3"/>
<path d="M242.625 171.038C241.407 174.18 239.364 176.702 236.961 178.333C233.895 180.442 230.232 181.116 226.916 179.833C221.013 177.55 218.48 169.897 221.252 162.754C224.013 155.612 231.047 151.677 236.95 153.959C236.983 153.97 237.015 153.981 237.048 154.003C242.886 156.341 245.375 163.939 242.625 171.038Z" fill="#D4D9F5"/>
<path d="M233.311 154.133C237.814 147.801 232.708 135.559 226.854 129.825C226.854 129.825 224.738 127.516 224.026 126.951C225.344 126.972 225.825 127.202 227.164 128.227C228.503 129.252 246.306 140.016 239.493 156.522C239.493 156.522 233.666 155.567 233.311 154.133Z" fill="#D4D9F5"/>
<path d="M242.625 171.037C241.407 174.179 239.364 176.701 236.961 178.332C228.71 180.191 222.231 171.918 227.884 162.167C230.363 157.895 233.657 155.275 237.048 154.003C242.886 156.34 245.375 163.938 242.625 171.037Z" fill="white"/>
<path d="M225.885 173.912C220.893 178.904 211.094 179.439 203.346 179.565C202.599 179.577 201.986 180.157 201.937 180.903C201.88 181.761 202.591 182.477 203.45 182.429C215.228 181.775 222.549 181.031 227.548 175.672L225.885 173.912Z" fill="#D4D9F5"/>
<path d="M203.387 183.973C205.062 183.973 206.419 182.615 206.419 180.941C206.419 179.266 205.062 177.909 203.387 177.909C201.713 177.909 200.355 179.266 200.355 180.941C200.355 182.615 201.713 183.973 203.387 183.973Z" fill="#FFD400"/>
<path d="M108.039 90.7607C114.216 90.7607 119.225 85.7525 119.225 79.5747C119.225 73.3968 114.216 68.3887 108.039 68.3887C101.861 68.3887 96.8525 73.3968 96.8525 79.5747C96.8525 85.7525 101.861 90.7607 108.039 90.7607Z" fill="#A2DEF8"/>
<path d="M225.706 44.3868C225.706 46.9218 223.651 48.9759 221.117 48.9759C218.582 48.9759 216.528 46.9208 216.528 44.3868C216.528 41.8528 218.583 39.7979 221.117 39.7979C223.652 39.7979 225.706 41.8528 225.706 44.3868Z" fill="#A2DEF8"/>
<path d="M174.681 112.353C176.492 112.353 177.959 110.885 177.959 109.075C177.959 107.264 176.492 105.797 174.681 105.797C172.871 105.797 171.403 107.264 171.403 109.075C171.403 110.885 172.871 112.353 174.681 112.353Z" fill="#A2DEF8"/>
<path d="M269.491 212.608C269.491 214.599 267.877 216.214 265.885 216.214C263.894 216.214 262.279 214.6 262.279 212.608C262.279 210.617 263.893 209.002 265.885 209.002C267.877 209.003 269.491 210.617 269.491 212.608Z" fill="#A2DEF8"/>
<path d="M287.707 280.002V349.436C287.707 356.296 282.152 361.862 275.281 361.862H152.068C145.208 361.862 139.653 356.296 139.653 349.436V280.002C139.653 273.142 145.208 267.576 152.068 267.576H275.281C282.152 267.576 287.707 273.142 287.707 280.002Z" fill="#6B6B6B"/>
<path d="M246.148 361.86H201.522L199.935 309.646H227.417L246.148 361.86Z" fill="#4A4A4A"/>
<path d="M260.345 383.873H237.049L227.421 309.652H199.938L190.31 383.873H167.014C165.088 383.873 163.527 385.434 163.527 387.36V390.788H263.83V387.36C263.831 385.434 262.27 383.873 260.345 383.873ZM223.745 346.85C223.745 352.409 219.239 356.915 213.68 356.915C208.121 356.915 203.615 352.409 203.615 346.85V342.649C203.615 337.09 208.121 332.584 213.68 332.584C219.239 332.584 223.745 337.091 223.745 342.649V346.85Z" fill="#979797"/>
<path d="M213.556 345.34C190.348 345.34 198.442 374.028 198.442 390.105" stroke="#73CDF3" stroke-width="2.1742" stroke-miterlimit="10"/>
<path d="M328.45 124.773C323.172 124.773 318.182 125.43 313.746 126.598C311.475 127.196 309.887 129.237 309.887 131.585V165.798V170.194C309.887 173.477 312.912 175.895 316.123 175.211C319.936 174.398 324.096 173.951 328.45 173.951C335.321 173.951 341.719 175.064 347.027 176.97V165.797V127.791C341.719 125.886 335.321 124.773 328.45 124.773Z" fill="#535353"/>
<path d="M365.602 124.773C358.731 124.773 352.333 125.886 347.025 127.792V165.798V176.971C352.333 175.065 358.731 173.952 365.602 173.952C369.956 173.952 374.115 174.399 377.929 175.212C381.14 175.896 384.165 173.478 384.165 170.195V165.799V131.586C384.165 129.238 382.577 127.197 380.306 126.599C375.871 125.43 370.88 124.773 365.602 124.773Z" fill="#797979"/>
<path d="M383.145 395.519H30.375C29.047 395.519 27.96 394.432 27.96 393.104C27.96 391.776 29.047 390.689 30.375 390.689H383.146C384.474 390.689 385.561 391.776 385.561 393.104C385.56 394.432 384.474 395.519 383.145 395.519Z" fill="#212121"/>
</svg>
