<svg width="40" height="41" viewBox="0 0 40 41" fill="none" xmlns="http://www.w3.org/2000/svg">
<path d="M5 35.75V32.4167C5 30.6486 5.70238 28.9529 6.95262 27.7026C8.20286 26.4524 9.89856 25.75 11.6667 25.75H18.3333C20.1014 25.75 21.7971 26.4524 23.0474 27.7026C24.2976 28.9529 25 30.6486 25 32.4167V35.75M26.6667 5.96667C28.1007 6.33384 29.3717 7.16784 30.2794 8.33718C31.1871 9.50653 31.6797 10.9447 31.6797 12.425C31.6797 13.9053 31.1871 15.3435 30.2794 16.5128C29.3717 17.6822 28.1007 18.5162 26.6667 18.8833M35 35.75V32.4167C34.9915 30.9453 34.4965 29.518 33.5921 28.3573C32.6877 27.1967 31.4247 26.3678 30 26M8.33333 12.4167C8.33333 14.1848 9.03571 15.8805 10.286 17.1307C11.5362 18.381 13.2319 19.0833 15 19.0833C16.7681 19.0833 18.4638 18.381 19.714 17.1307C20.9643 15.8805 21.6667 14.1848 21.6667 12.4167C21.6667 10.6486 20.9643 8.95286 19.714 7.70262C18.4638 6.45238 16.7681 5.75 15 5.75C13.2319 5.75 11.5362 6.45238 10.286 7.70262C9.03571 8.95286 8.33333 10.6486 8.33333 12.4167Z" stroke="white" stroke-width="4" stroke-linecap="round" stroke-linejoin="round"/>
</svg>
