<svg width="54" height="54" viewBox="0 0 54 54" fill="none" xmlns="http://www.w3.org/2000/svg">
<path d="M3.375 11.8125C3.375 9.57474 4.26395 7.42862 5.84629 5.84629C7.42862 4.26395 9.57474 3.375 11.8125 3.375H35.4375C37.6753 3.375 39.8214 4.26395 41.4037 5.84629C42.9861 7.42862 43.875 9.57474 43.875 11.8125V16.9763C42.754 16.8464 41.622 16.8418 40.5 16.9628V16.875H6.75V35.4375C6.75 36.7802 7.28337 38.0678 8.23277 39.0172C9.18218 39.9666 10.4698 40.5 11.8125 40.5H21.7822L19.3523 42.93C19.057 43.2244 18.784 43.5403 18.5355 43.875H11.8125C9.57474 43.875 7.42862 42.9861 5.84629 41.4037C4.26395 39.8214 3.375 37.6753 3.375 35.4375V11.8125ZM30.1421 22.6935L28.1947 20.7428C28.0379 20.5859 27.8516 20.4614 27.6466 20.3765C27.4416 20.2916 27.2219 20.2479 27 20.2479C26.7781 20.2479 26.5584 20.2916 26.3534 20.3765C26.1484 20.4614 25.9621 20.5859 25.8053 20.7428C25.6484 20.8996 25.5239 21.0859 25.439 21.2909C25.3541 21.4959 25.3104 21.7156 25.3104 21.9375C25.3104 22.1594 25.3541 22.3791 25.439 22.5841C25.5239 22.7891 25.6484 22.9754 25.8053 23.1322L28.3196 25.6432C28.8056 24.606 29.4131 23.6227 30.1421 22.6935ZM6.75 13.5H40.5V11.8125C40.5 10.4698 39.9666 9.18218 39.0172 8.23277C38.0678 7.28337 36.7802 6.75 35.4375 6.75H11.8125C10.4698 6.75 9.18218 7.28337 8.23277 8.23277C7.28337 9.18218 6.75 10.4698 6.75 11.8125V13.5ZM21.4447 23.1322C21.6016 22.9754 21.7261 22.7891 21.811 22.5841C21.8959 22.3791 21.9396 22.1594 21.9396 21.9375C21.9396 21.7156 21.8959 21.4959 21.811 21.2909C21.7261 21.0859 21.6016 20.8996 21.4447 20.7428C21.2879 20.5859 21.1016 20.4614 20.8966 20.3765C20.6916 20.2916 20.4719 20.2479 20.25 20.2479C20.0281 20.2479 19.8084 20.2916 19.6034 20.3765C19.3984 20.4614 19.2121 20.5859 19.0553 20.7428L12.3053 27.4928C12.1481 27.6495 12.0234 27.8357 11.9383 28.0407C11.8533 28.2458 11.8095 28.4655 11.8095 28.6875C11.8095 28.9095 11.8533 29.1292 11.9383 29.3343C12.0234 29.5393 12.1481 29.7255 12.3053 29.8822L19.0553 36.6323C19.3721 36.9491 19.8019 37.1271 20.25 37.1271C20.6981 37.1271 21.1279 36.9491 21.4447 36.6323C21.7616 36.3154 21.9396 35.8856 21.9396 35.4375C21.9396 34.9894 21.7616 34.5596 21.4447 34.2428L15.8861 28.6875L21.4447 23.1322ZM43.5105 20.331C44.7458 20.4727 45.1001 21.951 44.2192 22.8352L40.9286 26.1259C40.4562 26.5983 40.0814 27.1592 39.8257 27.7765C39.57 28.3938 39.4384 29.0555 39.4384 29.7236C39.4384 30.3918 39.57 31.0534 39.8257 31.6707C40.0814 32.288 40.4562 32.8489 40.9286 33.3214C41.4011 33.7938 41.962 34.1686 42.5793 34.4243C43.1966 34.68 43.8582 34.8116 44.5264 34.8116C45.1945 34.8116 45.8562 34.68 46.4735 34.4243C47.0908 34.1686 47.6517 33.7938 48.1241 33.3214L51.4147 30.0307C52.2956 29.1499 53.7772 29.5042 53.919 30.7395C54.1541 32.7453 53.8736 34.7778 53.1042 36.645C52.3349 38.5122 51.1019 40.1523 49.522 41.4102C47.9421 42.6681 46.0675 43.5022 44.0754 43.8337C42.0833 44.1652 40.0396 43.9831 38.1375 43.3046L28.9373 52.5082C28.4648 52.9807 27.9039 53.3555 27.2866 53.6112C26.6693 53.8669 26.0077 53.9985 25.3395 53.9985C24.6713 53.9985 24.0097 53.8669 23.3924 53.6112C22.7751 53.3555 22.2142 52.9807 21.7417 52.5082C21.2693 52.0358 20.8945 51.4749 20.6388 50.8576C20.3831 50.2403 20.2515 49.5787 20.2515 48.9105C20.2515 48.2423 20.3831 47.5807 20.6388 46.9634C20.8945 46.3461 21.2693 45.7852 21.7417 45.3127L30.942 36.1125C30.2633 34.2101 30.0812 32.166 30.4129 30.1736C30.7445 28.1812 31.579 26.3063 32.8373 24.7263C34.0956 23.1464 35.7362 21.9135 37.6038 21.1444C39.4715 20.3753 41.5045 20.0953 43.5105 20.331Z" fill="#239BCD"/>
</svg>
