<svg width="20" height="21" viewBox="0 0 20 21" fill="none" xmlns="http://www.w3.org/2000/svg">
<g clip-path="url(#clip0_35_49)">
<path d="M4.28566 10.5V6.74286C4.29682 6.00433 4.45359 5.27526 4.747 4.59743C5.04041 3.9196 5.46469 3.30632 5.99552 2.79274C6.52635 2.27916 7.1533 1.87538 7.84046 1.60451C8.52761 1.33365 9.26146 1.20104 9.99995 1.21428C10.7384 1.20104 11.4723 1.33365 12.1594 1.60451C12.8466 1.87538 13.4735 2.27916 14.0044 2.79274C14.5352 3.30632 14.9595 3.9196 15.2529 4.59743C15.5463 5.27526 15.7031 6.00433 15.7142 6.74286V10.5M12.8571 18C13.6149 18 14.3416 17.699 14.8774 17.1632C15.4132 16.6273 15.7142 15.9006 15.7142 15.1429V11.9286M12.8571 18C12.8571 18.4736 12.669 18.9278 12.3341 19.2627C11.9992 19.5976 11.545 19.7857 11.0714 19.7857H8.92852C8.45492 19.7857 8.00072 19.5976 7.66583 19.2627C7.33094 18.9278 7.1428 18.4736 7.1428 18C7.1428 17.5264 7.33094 17.0722 7.66583 16.7373C8.00072 16.4024 8.45492 16.2143 8.92852 16.2143H11.0714C11.545 16.2143 11.9992 16.4024 12.3341 16.7373C12.669 17.0722 12.8571 17.5264 12.8571 18ZM2.1428 8.35714H3.57138C3.76082 8.35714 3.9425 8.4324 4.07645 8.56635C4.21041 8.70031 4.28566 8.88199 4.28566 9.07143V13.3571C4.28566 13.5466 4.21041 13.7283 4.07645 13.8622C3.9425 13.9962 3.76082 14.0714 3.57138 14.0714H2.1428C1.76392 14.0714 1.40056 13.9209 1.13265 13.653C0.864743 13.3851 0.714233 13.0217 0.714233 12.6429V9.78571C0.714233 9.40683 0.864743 9.04347 1.13265 8.77556C1.40056 8.50765 1.76392 8.35714 2.1428 8.35714ZM17.8571 14.0714H16.4285C16.2391 14.0714 16.0574 13.9962 15.9234 13.8622C15.7895 13.7283 15.7142 13.5466 15.7142 13.3571V9.07143C15.7142 8.88199 15.7895 8.70031 15.9234 8.56635C16.0574 8.4324 16.2391 8.35714 16.4285 8.35714H17.8571C18.236 8.35714 18.5993 8.50765 18.8672 8.77556C19.1352 9.04347 19.2857 9.40683 19.2857 9.78571V12.6429C19.2857 13.0217 19.1352 13.3851 18.8672 13.653C18.5993 13.9209 18.236 14.0714 17.8571 14.0714Z" stroke="black" stroke-width="2" stroke-linecap="round" stroke-linejoin="round"/>
</g>
<defs>
<clipPath id="clip0_35_49">
<rect width="20" height="20" fill="white" transform="translate(0 0.5)"/>
</clipPath>
</defs>
</svg>
