<svg width="24" height="24" viewBox="0 0 24 24" fill="none" xmlns="http://www.w3.org/2000/svg">
<path d="M12.5 23C13.8789 23 15.2443 22.7284 16.5182 22.2007C17.7921 21.6731 18.9496 20.8996 19.9246 19.9246C20.8996 18.9496 21.6731 17.7921 22.2007 16.5182C22.7284 15.2443 23 13.8789 23 12.5C23 11.1211 22.7284 9.75574 22.2007 8.48182C21.6731 7.20791 20.8996 6.05039 19.9246 5.07538C18.9496 4.10036 17.7921 3.32694 16.5182 2.79926C15.2443 2.27159 13.8789 2 12.5 2M12.5 23C11.1211 23 9.75574 22.7284 8.48182 22.2007C7.20791 21.6731 6.05039 20.8996 5.07538 19.9246C4.10036 18.9496 3.32694 17.7921 2.79927 16.5182C2.27159 15.2443 2 13.8789 2 12.5C2 11.1211 2.27159 9.75574 2.79927 8.48182C3.32694 7.20791 4.10036 6.05039 5.07538 5.07538C6.05039 4.10036 7.20791 3.32694 8.48182 2.79926C9.75574 2.27159 11.1211 2 12.5 2M12.5 23C15.7212 23 17.0978 16.9765 17.0978 12.5C17.0978 8.0235 15.7212 2 12.5 2M12.5 23C9.27883 23 7.90217 16.9765 7.90217 12.5C7.90217 8.0235 9.27883 2 12.5 2M2.58333 9H22.4167M2.58333 16H22.4167" stroke="#239BCD" stroke-width="1.5" stroke-linecap="round" stroke-linejoin="round"/>
</svg>
